<svg width="43" height="43" viewBox="0 0 43 43" fill="none" xmlns="http://www.w3.org/2000/svg">
<g clip-path="url(#clip0_5_99)">
<path d="M43 21.4785C43 9.62125 33.368 0 21.5 0C9.632 0 0 9.62125 0 21.4785C0 28.0091 2.967 33.8947 7.611 37.8454C7.654 37.8884 7.697 37.8884 7.697 37.9314C8.084 38.2324 8.471 38.5334 8.901 38.8344C9.116 38.9634 9.288 39.1327 9.503 39.3047C13.0561 41.7137 17.2503 43.001 21.543 43C25.8357 43.001 30.0299 41.7137 33.583 39.3047C33.798 39.1757 33.97 39.0064 34.185 38.8747C34.572 38.5764 35.002 38.2754 35.389 37.9744C35.432 37.9314 35.475 37.9314 35.475 37.8884C40.033 33.8921 43 28.0091 43 21.4785ZM21.5 40.2937C17.458 40.2937 13.76 39.0037 10.707 36.8564C10.75 36.5124 10.836 36.1711 10.922 35.8271C11.1782 34.8948 11.554 33.9996 12.04 33.1637C12.513 32.3468 13.072 31.6158 13.76 30.9708C14.405 30.3258 15.179 29.7264 15.953 29.2534C16.77 28.7804 17.63 28.4364 18.576 28.1784C19.5294 27.9215 20.5126 27.7922 21.5 27.7941C24.4311 27.7734 27.2546 28.8977 29.369 30.9278C30.358 31.9168 31.132 33.0778 31.691 34.4081C31.992 35.1821 32.207 35.9991 32.336 36.8564C29.1625 39.0874 25.3792 40.2875 21.5 40.2937ZM14.921 20.4062C14.5421 19.5387 14.3516 18.6007 14.362 17.6542C14.362 16.7109 14.534 15.7649 14.921 14.9049C15.308 14.0449 15.824 13.2736 16.469 12.6286C17.114 11.9836 17.888 11.4703 18.748 11.0833C19.608 10.6962 20.554 10.5243 21.5 10.5243C22.489 10.5243 23.392 10.6962 24.252 11.0833C25.112 11.4703 25.886 11.9862 26.531 12.6286C27.176 13.2736 27.692 14.0476 28.079 14.9049C28.466 15.7649 28.638 16.7109 28.638 17.6542C28.638 18.6432 28.466 19.5462 28.079 20.4035C27.7055 21.2508 27.181 22.023 26.531 22.6825C25.8713 23.3315 25.0991 23.8551 24.252 24.2278C22.4751 24.958 20.4819 24.958 18.705 24.2278C17.8579 23.8551 17.0857 23.3315 16.426 22.6825C15.7751 22.0326 15.2631 21.2573 14.921 20.4035V20.4062ZM34.873 34.6661C34.873 34.5801 34.83 34.5371 34.83 34.4511C34.4071 33.1057 33.7838 31.8319 32.981 30.6724C32.1775 29.5044 31.19 28.4743 30.057 27.6221C29.1917 26.9712 28.2537 26.4228 27.262 25.9881C27.7132 25.6905 28.1312 25.3454 28.509 24.9588C29.1501 24.3259 29.7131 23.6186 30.186 22.8518C31.1383 21.2872 31.6302 19.4857 31.605 17.6542C31.6183 16.2984 31.3549 14.9541 30.831 13.7036C30.3137 12.4986 29.5691 11.4046 28.638 10.4812C27.7082 9.56758 26.614 8.83809 25.413 8.33125C24.1604 7.80825 22.8144 7.54581 21.457 7.55994C20.0995 7.54666 18.7534 7.81001 17.501 8.33394C16.2896 8.83969 15.1927 9.58466 14.276 10.5243C13.3624 11.453 12.6328 12.5464 12.126 13.7466C11.6021 14.9971 11.3387 16.3414 11.352 17.6972C11.352 18.6432 11.481 19.5462 11.739 20.4035C11.997 21.3065 12.341 22.1235 12.814 22.8948C13.244 23.6688 13.846 24.3568 14.491 25.0018C14.878 25.3888 15.308 25.7301 15.781 26.0311C14.7862 26.4774 13.8479 27.0404 12.986 27.7081C11.868 28.5681 10.879 29.5974 10.062 30.7154C9.25107 31.8701 8.62709 33.1452 8.213 34.4941C8.17 34.5801 8.17 34.6661 8.17 34.7091C4.773 31.2717 2.666 26.6331 2.666 21.4785C2.666 11.1263 11.137 2.66331 21.5 2.66331C31.863 2.66331 40.334 11.1263 40.334 21.4785C40.3284 26.4234 38.3649 31.1649 34.873 34.6661Z" fill="black"/>
</g>
<defs>
<clipPath id="clip0_5_99">
<rect width="43" height="43" fill="white"/>
</clipPath>
</defs>
</svg>
