<svg width="44" height="44" viewBox="0 0 44 44" fill="none" xmlns="http://www.w3.org/2000/svg">
<g clip-path="url(#clip0_8_153)">
<path d="M10.586 18.2293C10.4627 17.9633 10.1963 17.7931 9.90323 17.7931C9.90266 17.7931 9.90208 17.7931 9.9015 17.7931C9.60774 17.7938 9.34119 17.9653 9.21892 18.2324L5.48865 26.3803C5.31566 26.7583 5.4817 27.205 5.85963 27.378C5.96118 27.4244 6.06771 27.4464 6.1725 27.4464C6.4578 27.4464 6.73072 27.2832 6.85728 27.0069L7.79286 24.9633H12.0481L12.9968 27.0101C13.1716 27.3872 13.6189 27.5513 13.9962 27.3765C14.3733 27.2016 14.5372 26.7542 14.3625 26.3771L10.586 18.2293ZM8.48203 23.458L9.90752 20.3447L11.3505 23.458H8.48203Z" fill="black"/>
<path d="M19.2784 17.7002H15.6396C15.2239 17.7002 14.887 18.0371 14.887 18.4528V26.6935C14.887 27.1092 15.2239 27.4462 15.6396 27.4462C16.0553 27.4462 16.3922 27.1092 16.3922 26.6935V23.5632H19.2784C20.8948 23.5632 22.2097 22.2481 22.2097 20.6318C22.2098 19.0153 20.8948 17.7002 19.2784 17.7002ZM19.2784 22.0579H16.3922V19.2054H19.2784C20.0648 19.2054 20.7045 19.8453 20.7045 20.6317C20.7046 21.4182 20.0648 22.0579 19.2784 22.0579Z" fill="black"/>
<path d="M23.5417 17.7002C23.126 17.7002 22.7891 18.0371 22.7891 18.4528V26.6935C22.7891 27.1092 23.126 27.4462 23.5417 27.4462C23.9574 27.4462 24.2943 27.1092 24.2943 26.6935V18.4528C24.2943 18.0371 23.9573 17.7002 23.5417 17.7002Z" fill="black"/>
<path d="M42.6472 5.38271H1.35288C0.606853 5.38271 0 5.98979 0 6.73582V37.2644C0 38.0103 0.606853 38.6173 1.35288 38.6173H42.6474C43.3933 38.6173 44.0001 38.0103 44.0001 37.2644V6.73582C44 5.98979 43.3933 5.38271 42.6472 5.38271ZM32.5309 30.0205C33.1286 28.6088 34.5055 27.6966 36.0388 27.6966C36.5495 27.6966 37.0486 27.7983 37.5224 27.9988C39.4556 28.8177 40.3626 31.0566 39.5442 32.9899C38.9459 34.4015 37.5691 35.3136 36.0365 35.3136C36.0365 35.3136 36.0365 35.3136 36.0364 35.3136C35.5256 35.3136 35.0266 35.2119 34.5531 35.0113C33.6165 34.6148 32.8902 33.8773 32.5084 32.9346C32.1264 31.9919 32.1344 30.957 32.5309 30.0205ZM37.1531 9.23664C37.9456 9.23664 38.5874 9.87893 38.5874 10.6709C38.5874 11.4632 37.9456 12.1052 37.1531 12.1052C36.3613 12.1052 35.7191 11.4632 35.7191 10.6709C35.7191 9.87893 36.3613 9.23664 37.1531 9.23664ZM32.8512 9.23664C33.6431 9.23664 34.2854 9.87893 34.2854 10.6709C34.2854 11.4632 33.6431 12.1052 32.8512 12.1052C32.0593 12.1052 31.4169 11.4632 31.4169 10.6709C31.4169 9.87893 32.0593 9.23664 32.8512 9.23664ZM28.5492 9.23664C29.3411 9.23664 29.9828 9.87893 29.9828 10.6709C29.9828 11.4632 29.3411 12.1052 28.5492 12.1052C27.7567 12.1052 27.1149 11.4632 27.1149 10.6709C27.115 9.87893 27.7568 9.23664 28.5492 9.23664ZM2.46284 36.3591V16.3754H41.5372V24.165C41.3592 23.9101 41.1114 23.6996 40.8046 23.5695L38.4177 22.5591C38.2052 22.4691 37.981 22.4234 37.7514 22.4234C37.0618 22.4234 36.4427 22.8333 36.174 23.4679L36.0289 23.8105C34.9605 23.8254 33.9006 24.0716 32.9341 24.5276L32.6532 24.2836C32.5173 24.1657 32.3639 24.0704 32.1979 24.0003C31.9848 23.9101 31.76 23.8643 31.5297 23.8643C31.0346 23.8643 30.5639 24.0795 30.2382 24.4547L28.5394 26.4133C28.2404 26.7591 28.0931 27.2 28.1248 27.6563C28.1578 28.1126 28.3661 28.5288 28.7112 28.8275L28.991 29.0705C28.672 30.0951 28.5785 31.1754 28.7172 32.2366L28.3989 32.4281C27.5905 32.9144 27.3287 33.9683 27.8154 34.7778L28.8367 36.4737H2.57747C2.51425 36.4737 2.46284 36.4223 2.46284 36.3591Z" fill="black"/>
</g>
<defs>
<clipPath id="clip0_8_153">
<rect width="44" height="44" fill="white"/>
</clipPath>
</defs>
</svg>
