<svg width="43" height="43" viewBox="0 0 43 43" fill="none" xmlns="http://www.w3.org/2000/svg">
<path d="M35.8334 10.75C35.8334 6.86568 29.2705 3.58334 21.5001 3.58334C13.7296 3.58334 7.16675 6.86568 7.16675 10.75V14.3333C7.16675 18.2177 13.7296 21.5 21.5001 21.5C29.2705 21.5 35.8334 18.2177 35.8334 14.3333V10.75ZM21.5001 34.0417C13.7296 34.0417 7.16675 30.7593 7.16675 26.875V32.25C7.16675 36.1343 13.7296 39.4167 21.5001 39.4167C29.2705 39.4167 35.8334 36.1343 35.8334 32.25V26.875C35.8334 30.7593 29.2705 34.0417 21.5001 34.0417Z" fill="#DD4433"/>
<path d="M35.8334 17.9167C35.8334 21.801 29.2705 25.0833 21.5001 25.0833C13.7296 25.0833 7.16675 21.801 7.16675 17.9167V23.2917C7.16675 27.176 13.7296 30.4583 21.5001 30.4583C29.2705 30.4583 35.8334 27.176 35.8334 23.2917V17.9167Z" fill="#DD4433"/>
</svg>
