<svg width="43" height="43" viewBox="0 0 43 43" fill="none" xmlns="http://www.w3.org/2000/svg">
<path d="M35.8333 10.75C35.8333 6.86568 29.2705 3.58334 21.5 3.58334C13.7295 3.58334 7.16666 6.86568 7.16666 10.75V14.3333C7.16666 18.2177 13.7295 21.5 21.5 21.5C29.2705 21.5 35.8333 18.2177 35.8333 14.3333V10.75ZM21.5 34.0417C13.7295 34.0417 7.16666 30.7593 7.16666 26.875V32.25C7.16666 36.1343 13.7295 39.4167 21.5 39.4167C29.2705 39.4167 35.8333 36.1343 35.8333 32.25V26.875C35.8333 30.7593 29.2705 34.0417 21.5 34.0417Z" fill="black"/>
<path d="M35.8333 17.9167C35.8333 21.801 29.2705 25.0833 21.5 25.0833C13.7295 25.0833 7.16666 21.801 7.16666 17.9167V23.2917C7.16666 27.176 13.7295 30.4583 21.5 30.4583C29.2705 30.4583 35.8333 27.176 35.8333 23.2917V17.9167Z" fill="black"/>
</svg>
