<svg width="43" height="43" viewBox="0 0 43 43" fill="none" xmlns="http://www.w3.org/2000/svg">
<path d="M8.59998 28.6667V20.0667H10.0333C10.8249 20.0667 11.4666 20.7084 11.4666 21.5V27.2333C11.4666 28.0249 10.8249 28.6667 10.0333 28.6667H8.59998Z" fill="#DD4433"/>
<path d="M20.0667 21.5C20.0667 20.7084 20.7084 20.0667 21.5 20.0667C22.2916 20.0667 22.9333 20.7084 22.9333 21.5V27.2333C22.9333 28.0249 22.2916 28.6667 21.5 28.6667C20.7084 28.6667 20.0667 28.0249 20.0667 27.2333V21.5Z" fill="#DD4433"/>
<path fill-rule="evenodd" clip-rule="evenodd" d="M2.86658 4.3C2.86658 1.92518 4.79174 0 7.16658 0H30.6936L40.1332 9.43962V38.7C40.1332 41.0747 38.208 43 35.8332 43H7.16658C4.79174 43 2.86658 41.0747 2.86658 38.7V4.3ZM10.0332 17.2H5.73324V31.5333H10.0332C12.4081 31.5333 14.3332 29.6081 14.3332 27.2333V21.5C14.3332 19.1252 12.4081 17.2 10.0332 17.2ZM21.4999 17.2C19.1251 17.2 17.1999 19.1252 17.1999 21.5V27.2333C17.1999 29.6081 19.1251 31.5333 21.4999 31.5333C23.8747 31.5333 25.7999 29.6081 25.7999 27.2333V21.5C25.7999 19.1252 23.8747 17.2 21.4999 17.2ZM28.6666 31.5333V17.2H37.2666V22.9333H34.3999V20.0667H31.5332V28.6667H34.3999V25.8H37.2666V31.5333H28.6666Z" fill="#DD4433"/>
</svg>
