<svg width="51" height="51" viewBox="0 0 51 51" fill="none" xmlns="http://www.w3.org/2000/svg">
<path d="M50.1889 44.129C47.3508 41.8022 44.2936 40.2579 43.6779 39.9449C43.6049 39.9136 43.5632 39.8406 43.5632 39.7571V35.3434C44.1162 34.9782 44.4814 34.3417 44.4814 33.6218V29.0411C44.4814 26.7664 42.6345 24.9196 40.3599 24.9196H39.8694H39.3686C37.0939 24.9196 35.2471 26.7664 35.2471 29.0411V33.6218C35.2471 34.3417 35.6123 34.9678 36.1653 35.3434V39.7571C36.1653 39.7884 36.1549 39.8093 36.1549 39.8301C37.0209 40.4249 37.9287 41.0927 38.8156 41.8231C39.8486 42.6787 40.4433 43.9412 40.4433 45.2872V48.981H50.9924V45.8507C50.9924 45.1829 50.7002 44.5568 50.1889 44.129Z" fill="black"/>
<path d="M14.8166 39.7675V35.3538C15.3696 34.9886 15.7348 34.3522 15.7348 33.6322V29.0516C15.7348 26.7769 13.888 24.93 11.6133 24.93H11.1229H10.6325C8.35783 24.93 6.51097 26.7769 6.51097 29.0516V33.6322C6.51097 34.3522 6.87617 34.9782 7.42918 35.3538V39.7675C7.42918 39.8406 7.38745 39.9136 7.31441 39.9553C6.68835 40.2579 3.63112 41.8022 0.803437 44.1395C0.292159 44.5568 0 45.1933 0 45.8507V48.981H10.549V45.2977C10.549 43.9517 11.1438 42.6891 12.1768 41.8335C13.0637 41.1031 13.9715 40.4353 14.8375 39.8406C14.8166 39.8197 14.8166 39.7988 14.8166 39.7675Z" fill="black"/>
<path d="M41.5494 14.5166C43.2379 14.5166 44.6067 13.1479 44.6067 11.4594C44.6067 9.77095 43.2379 8.40218 41.5494 8.40218C39.861 8.40218 38.4922 9.77095 38.4922 11.4594C38.4922 13.1479 39.861 14.5166 41.5494 14.5166Z" fill="black"/>
<path d="M34.5792 17.793C34.2244 18.5651 33.6088 19.5147 32.6384 19.9946C32.3149 20.1511 32.388 20.6311 32.7427 20.6833C33.807 20.8502 35.3304 20.6624 36.7599 19.5877L36.7808 19.6086C40.4015 21.7371 45.1282 21.2467 48.2376 18.1373C51.9209 14.454 51.9209 8.47522 48.2376 4.78149C44.5543 1.09821 38.5755 1.09821 34.8817 4.78149C31.3341 8.32914 31.1985 14.0054 34.4852 17.7095L34.5792 17.793ZM34.527 10.8542C34.5374 10.5308 34.8087 10.2699 35.1322 10.2699L36.0086 10.2908C36.1652 9.53951 36.4782 8.82998 36.9373 8.18306L36.3217 7.54657C36.0921 7.30658 36.1026 6.93095 36.3425 6.7014L37.0103 6.06491C37.2503 5.83535 37.626 5.84579 37.8555 6.08578L38.4711 6.7327C39.1285 6.30489 39.8589 6.0336 40.6102 5.90839L40.631 5.01105C40.6415 4.68759 40.9127 4.42673 41.2362 4.42673L42.1544 4.4476C42.4779 4.45803 42.7387 4.72932 42.7387 5.05279L42.7179 5.96056C43.4587 6.11708 44.1682 6.43011 44.8152 6.87878L45.4725 6.25272C45.7125 6.02317 46.0881 6.0336 46.3177 6.27359L46.9542 6.94138C47.1837 7.18137 47.1733 7.557 46.9333 7.78656L46.2759 8.41261C46.7038 9.06997 46.9855 9.80037 47.1107 10.5412L48.0185 10.5621C48.3419 10.5725 48.6028 10.8438 48.6028 11.1673L48.5819 12.0855C48.5715 12.4089 48.3002 12.6698 47.9767 12.6698L47.0794 12.6489C46.9229 13.3897 46.6203 14.1097 46.1612 14.7566L46.7768 15.4036C47.0063 15.6435 46.9959 16.0192 46.7559 16.2487L46.0881 16.8852C45.8481 17.1148 45.4725 17.1043 45.243 16.8644L44.6273 16.2279C43.97 16.6661 43.2291 16.9478 42.4779 17.073L42.457 17.9495C42.4466 18.273 42.1753 18.5338 41.8518 18.5338L40.9336 18.513C40.6101 18.5025 40.3493 18.2312 40.3493 17.9078L40.3702 17.0313C39.6189 16.8748 38.8989 16.5618 38.252 16.1027L37.626 16.7078C37.386 16.9374 37.0103 16.927 36.7808 16.687L36.1443 16.0192C35.9147 15.7792 35.9252 15.4036 36.1652 15.174L36.7912 14.5688C36.353 13.901 36.0817 13.1706 35.9565 12.4089L35.08 12.3881C34.7565 12.3776 34.4957 12.1063 34.4957 11.7829L34.527 10.8542Z" fill="black"/>
<path d="M37.6258 43.2839C34.2973 40.5501 30.6975 38.7241 29.9671 38.3694C29.8836 38.3276 29.8314 38.2441 29.8314 38.1502V32.9644C30.4888 32.5262 30.9166 31.7853 30.9166 30.9506V25.5665C30.9166 22.8849 28.7463 20.7146 26.0647 20.7146H25.4908H24.9169C22.2353 20.7146 20.065 22.8849 20.065 25.5665V30.9506C20.065 31.7958 20.4928 32.5366 21.1502 32.9644V38.1502C21.1502 38.2441 21.098 38.3276 21.0145 38.3694C20.2841 38.7241 16.6947 40.5397 13.3558 43.2839C12.7506 43.7743 12.4062 44.5151 12.4062 45.2977V48.981H23.7691L24.896 43.8369C22.6318 40.6753 25.063 40.5188 25.4908 40.5188C25.9186 40.5188 28.3498 40.6753 26.0856 43.8369L27.2124 48.981H38.5753V45.2977C38.5753 44.5151 38.231 43.7743 37.6258 43.2839Z" fill="black"/>
</svg>
