<svg width="43" height="43" viewBox="0 0 43 43" fill="none" xmlns="http://www.w3.org/2000/svg">
<g clip-path="url(#clip0_9_333)">
<path d="M21.3806 20.6639C24.6056 20.6639 27.1139 18.0361 27.1139 14.8111C27.1139 11.5861 24.4862 9.07779 21.2612 9.07779C18.0362 9.07779 15.5278 11.7056 15.5278 14.8111C15.5278 18.0361 18.1556 20.6639 21.3806 20.6639ZM21.2612 11.4667C21.3806 11.4667 21.3806 11.4667 21.2612 11.4667C23.1723 11.4667 24.7251 13.0195 24.7251 14.9306C24.7251 16.8417 23.1723 18.275 21.2612 18.275C19.3501 18.275 17.9167 16.7222 17.9167 14.9306C17.9167 13.0195 19.4695 11.4667 21.2612 11.4667Z" fill="#DF4F40"/>
<path d="M39.0582 19.9472C36.7887 17.9167 33.8026 16.8417 30.6971 16.9611C30.3387 16.9611 30.0998 16.9611 29.7415 16.9611C29.5026 17.9167 29.1443 18.7528 28.6665 19.4694C29.3832 19.35 29.9804 19.35 30.6971 19.35C32.9665 19.2306 35.2359 19.9472 37.0276 21.2611V29.8611H39.4165V20.3056L39.0582 19.9472Z" fill="#DF4F40"/>
<path d="M27.9501 9.31666C28.5473 7.88333 30.2195 7.16666 31.7723 7.76389C33.2056 8.36111 33.9223 10.0333 33.3251 11.5861C32.8473 12.6611 31.7723 13.3778 30.6973 13.3778C30.4584 13.3778 30.1001 13.3778 29.8612 13.2583C29.9806 13.8556 29.9806 14.4528 29.9806 14.9306C29.9806 15.1694 29.9806 15.4083 29.9806 15.6472C30.2195 15.6472 30.4584 15.7667 30.6973 15.7667C33.6834 15.7667 36.0723 13.3778 36.0723 10.5111C36.0723 7.525 33.6834 5.13611 30.8167 5.13611C28.9056 5.13611 27.2334 6.09166 26.2778 7.76389C26.8751 8.12222 27.4723 8.6 27.9501 9.31666Z" fill="#DF4F40"/>
<path d="M14.3335 19.5889C13.8557 18.8722 13.4974 18.0361 13.2585 17.0806C12.9002 17.0806 12.6613 17.0806 12.3029 17.0806C9.19739 16.9611 6.21127 18.0361 3.94183 19.9472L3.5835 20.3056V29.8611H5.97238V21.2611C7.8835 19.9472 10.0335 19.2306 12.3029 19.35C13.0196 19.35 13.7363 19.4695 14.3335 19.5889Z" fill="#DF4F40"/>
<path d="M12.3029 15.6472C12.5418 15.6472 12.7807 15.6472 13.0196 15.5278C13.0196 15.2889 13.0196 15.05 13.0196 14.8111C13.0196 14.2139 13.0196 13.6167 13.139 13.1389C12.9002 13.2583 12.5418 13.2583 12.3029 13.2583C10.7502 13.2583 9.43627 11.9445 9.43627 10.3917C9.43627 8.8389 10.7502 7.52501 12.3029 7.52501C13.4974 7.52501 14.5724 8.24168 15.0502 9.31668C15.5279 8.71946 16.2446 8.12224 16.8418 7.64446C15.289 5.13613 12.064 4.30001 9.55571 5.85279C7.04738 7.40557 6.21127 10.6306 7.76405 13.1389C8.7196 14.6917 10.3918 15.6472 12.3029 15.6472Z" fill="#DF4F40"/>
<path d="M31.1749 27.1139L30.936 26.7556C28.5471 24.1278 25.2027 22.575 21.6193 22.6944C18.036 22.575 14.5721 24.1278 12.1832 26.7556L11.9443 27.1139V36.1917C11.9443 37.2667 12.7804 38.2222 13.9749 38.2222H29.2638C30.3388 38.2222 31.2943 37.2667 31.2943 36.1917V27.1139H31.1749ZM28.786 35.8333H14.3332V27.95C16.2443 26.0389 18.8721 25.0833 21.6193 25.0833C24.2471 24.9639 26.8749 26.0389 28.786 27.95V35.8333Z" fill="#DF4F40"/>
</g>
<defs>
<clipPath id="clip0_9_333">
<rect width="43" height="43" fill="white"/>
</clipPath>
</defs>
</svg>
