<svg width="45" height="47" viewBox="0 0 45 47" fill="none" xmlns="http://www.w3.org/2000/svg">
<g clip-path="url(#clip0_5_104)" filter="url(#filter0_d_5_104)">
<path d="M22.3805 20.6639C25.6055 20.6639 28.1139 18.0361 28.1139 14.8111C28.1139 11.5861 25.4861 9.07779 22.2611 9.07779C19.0361 9.07779 16.5278 11.7056 16.5278 14.8111C16.5278 18.0361 19.1555 20.6639 22.3805 20.6639ZM22.2611 11.4667C22.3805 11.4667 22.3805 11.4667 22.2611 11.4667C24.1722 11.4667 25.725 13.0195 25.725 14.9306C25.725 16.8417 24.1722 18.275 22.2611 18.275C20.35 18.275 18.9167 16.7222 18.9167 14.9306C18.9167 13.0195 20.4694 11.4667 22.2611 11.4667Z" fill="black"/>
<path d="M40.0583 19.9472C37.7889 17.9167 34.8028 16.8417 31.6972 16.9611C31.3389 16.9611 31.1 16.9611 30.7417 16.9611C30.5028 17.9167 30.1444 18.7528 29.6667 19.4694C30.3833 19.35 30.9806 19.35 31.6972 19.35C33.9667 19.2306 36.2361 19.9472 38.0278 21.2611V29.8611H40.4167V20.3056L40.0583 19.9472Z" fill="black"/>
<path d="M28.95 9.31666C29.5472 7.88333 31.2194 7.16666 32.7722 7.76389C34.2055 8.36111 34.9222 10.0333 34.325 11.5861C33.8472 12.6611 32.7722 13.3778 31.6972 13.3778C31.4583 13.3778 31.1 13.3778 30.8611 13.2583C30.9805 13.8556 30.9805 14.4528 30.9805 14.9306C30.9805 15.1694 30.9805 15.4083 30.9805 15.6472C31.2194 15.6472 31.4583 15.7667 31.6972 15.7667C34.6833 15.7667 37.0722 13.3778 37.0722 10.5111C37.0722 7.525 34.6833 5.13611 31.8167 5.13611C29.9055 5.13611 28.2333 6.09166 27.2778 7.76389C27.875 8.12222 28.4722 8.6 28.95 9.31666Z" fill="black"/>
<path d="M15.3333 19.5889C14.8555 18.8722 14.4972 18.0361 14.2583 17.0806C13.9 17.0806 13.6611 17.0806 13.3028 17.0806C10.1972 16.9611 7.21111 18.0361 4.94166 19.9472L4.58333 20.3056V29.8611H6.97222V21.2611C8.88333 19.9472 11.0333 19.2306 13.3028 19.35C14.0194 19.35 14.7361 19.4695 15.3333 19.5889Z" fill="black"/>
<path d="M13.3028 15.6472C13.5417 15.6472 13.7806 15.6472 14.0194 15.5278C14.0194 15.2889 14.0194 15.05 14.0194 14.8111C14.0194 14.2139 14.0194 13.6167 14.1389 13.1389C13.9 13.2583 13.5417 13.2583 13.3028 13.2583C11.75 13.2583 10.4361 11.9445 10.4361 10.3917C10.4361 8.8389 11.75 7.52501 13.3028 7.52501C14.4972 7.52501 15.5722 8.24168 16.05 9.31668C16.5278 8.71946 17.2445 8.12224 17.8417 7.64446C16.2889 5.13613 13.0639 4.30001 10.5556 5.85279C8.04723 7.40557 7.21112 10.6306 8.76389 13.1389C9.71945 14.6917 11.3917 15.6472 13.3028 15.6472Z" fill="black"/>
<path d="M32.175 27.1139L31.9361 26.7556C29.5472 24.1278 26.2028 22.575 22.6194 22.6944C19.0361 22.575 15.5722 24.1278 13.1833 26.7556L12.9444 27.1139V36.1917C12.9444 37.2667 13.7806 38.2222 14.975 38.2222H30.2639C31.3389 38.2222 32.2944 37.2667 32.2944 36.1917V27.1139H32.175ZM29.7861 35.8333H15.3333V27.95C17.2444 26.0389 19.8722 25.0833 22.6194 25.0833C25.2472 24.9639 27.875 26.0389 29.7861 27.95V35.8333Z" fill="black"/>
</g>
<defs>
<filter id="filter0_d_5_104" x="-3" y="0" width="51" height="51" filterUnits="userSpaceOnUse" color-interpolation-filters="sRGB">
<feFlood flood-opacity="0" result="BackgroundImageFix"/>
<feColorMatrix in="SourceAlpha" type="matrix" values="0 0 0 0 0 0 0 0 0 0 0 0 0 0 0 0 0 0 127 0" result="hardAlpha"/>
<feOffset dy="4"/>
<feGaussianBlur stdDeviation="2"/>
<feComposite in2="hardAlpha" operator="out"/>
<feColorMatrix type="matrix" values="0 0 0 0 0 0 0 0 0 0 0 0 0 0 0 0 0 0 0.25 0"/>
<feBlend mode="normal" in2="BackgroundImageFix" result="effect1_dropShadow_5_104"/>
<feBlend mode="normal" in="SourceGraphic" in2="effect1_dropShadow_5_104" result="shape"/>
</filter>
<clipPath id="clip0_5_104">
<rect width="43" height="43" fill="white" transform="translate(1)"/>
</clipPath>
</defs>
</svg>
