<svg width="44" height="44" viewBox="0 0 44 44" fill="none" xmlns="http://www.w3.org/2000/svg">
<path d="M20.5177 42.5177C20.5177 38.288 17.0766 34.8469 12.8469 34.8469C8.61711 34.8469 5.17603 38.288 5.17603 42.5177C5.17603 43.3363 5.83972 44 6.65836 44H19.0353C19.854 44 20.5177 43.3363 20.5177 42.5177Z" fill="black"/>
<path d="M12.8469 31.8822C14.7794 31.8822 16.427 30.6428 17.0389 28.9176H26.9611C27.573 30.6428 29.2207 31.8822 31.1531 31.8822C33.6052 31.8822 35.6001 29.8873 35.6001 27.4352C35.6001 24.9831 33.6052 22.9882 31.1531 22.9882C29.2207 22.9882 27.573 24.2277 26.9611 25.9529H23.4823V21.0118H28.1885C29.0071 21.0118 29.6708 20.3481 29.6708 19.5294C29.6708 15.2998 26.2297 11.8587 22 11.8587C17.7703 11.8587 14.3291 15.2998 14.3291 19.5294C14.3291 20.3481 14.9928 21.0118 15.8115 21.0118H20.5177V25.9529H17.0389C16.427 24.2277 14.7794 22.9882 12.8469 22.9882C10.3948 22.9882 8.3999 24.9831 8.3999 27.4352C8.3999 29.8873 10.3948 31.8822 12.8469 31.8822Z" fill="black"/>
<path d="M31.1532 34.8469C26.9235 34.8469 23.4824 38.288 23.4824 42.5177C23.4824 43.3363 24.1461 44 24.9648 44H37.3417C38.1604 44 38.8241 43.3363 38.8241 42.5177C38.8241 38.288 35.383 34.8469 31.1532 34.8469Z" fill="black"/>
<path d="M17.5532 4.447C17.5532 6.89908 19.5481 8.894 22.0002 8.894C24.4522 8.894 26.4472 6.89908 26.4472 4.447C26.4472 1.99492 24.4522 0 22.0002 0C19.5482 0 17.5532 1.99492 17.5532 4.447Z" fill="black"/>
</svg>
